<svg xmlns="http://www.w3.org/2000/svg" width="16" height="16" viewBox="0 0 16 16" class="icon">
  <path d="M14.8,2.76H1.2A1.2,1.2,0,0,0,0,4V6.25H16V4A1.2,1.2,0,0,0,14.8,2.76Z" style="fill: #f5f5f5"/>
  <path d="M0,12a1.2,1.2,0,0,0,1.2,1.2H14.8A1.2,1.2,0,0,0,16,12V9.75H0Z" style="fill: #ff4b55"/>
  <path d="M16,6.25H0v3.5H16Z" style="fill: #41479b"/>
  <path d="M4.07,10.6c-.08,0-2-1.16-2-2.88V5.38H6.21V7.72c0,1.72-1.92,2.84-2,2.88l-.07,0Z" style="fill: #ff4b55"/>
  <path d="M5.22,7.31l-.65.09H4.35V7h.13L5,7.09l-.08-.3L5,6.49l-.53.08H4.35V6.44l.09-.65-.3.09-.3-.09.08.65v.13H3.79l-.52-.08.07.3-.07.3L3.79,7h.13V7.4H3.7l-.65-.09.09.3-.09.31.65-.09h.22v1h.43v-1h.22l.65.09-.09-.31Z" style="fill: #f5f5f5"/>
  <path d="M4.14,8.41a.71.71,0,0,0-.64.42h0a.69.69,0,0,0-.69.65A5.37,5.37,0,0,0,4.07,10.6l.07,0,.07,0a5.63,5.63,0,0,0,1.3-1.12.69.69,0,0,0-.68-.65H4.77A.69.69,0,0,0,4.14,8.41Z" style="fill: #41479b"/>
  <path d="M6.07,5.52v2.2c0,1.66-1.93,2.76-1.93,2.76S2.21,9.38,2.21,7.72V5.52Zm.27-.28H1.93V7.72c0,1.8,2,3,2.07,3l.14.08.13-.08c.09-.05,2.07-1.2,2.07-3V5.24Z" style="fill: #f5f5f5"/>
</svg>
