<svg xmlns="http://www.w3.org/2000/svg" xmlns:xlink="http://www.w3.org/1999/xlink" width="16" height="3.94" viewBox="0 0 16 3.94" class="icon">
  <defs>
    <linearGradient id="a" x1="-0.52" y1="882.93" x2="2.97" y2="884.56" gradientTransform="translate(0 -882)" gradientUnits="userSpaceOnUse">
      <stop offset="0" stop-color="#cd8b65"/>
      <stop offset="1" stop-color="#bb6b3d"/>
    </linearGradient>
  </defs>
  <path d="M5.73,2.71a1.08,1.08,0,0,1-.5-.12.81.81,0,0,1-.32-.34,1.12,1.12,0,0,1-.11-.51,1.08,1.08,0,0,1,.12-.5A1,1,0,0,1,5.27.9a1.08,1.08,0,0,1,.5-.12,1.31,1.31,0,0,1,.28,0l.23.08v.33a1.12,1.12,0,0,0-.47-.11.58.58,0,0,0-.45.17.69.69,0,0,0-.15.46.72.72,0,0,0,.15.47.54.54,0,0,0,.43.17H6V2H5.75V1.74h.59v.83A1.19,1.19,0,0,1,5.73,2.71Zm1.49,0a.69.69,0,0,1-.37-.1.59.59,0,0,1-.23-.24A.67.67,0,0,1,6.54,2a.66.66,0,0,1,.08-.34.56.56,0,0,1,.23-.25.69.69,0,0,1,.37-.1.65.65,0,0,1,.36.1.56.56,0,0,1,.23.25A.66.66,0,0,1,7.89,2a.72.72,0,0,1-.08.35.59.59,0,0,1-.23.24.66.66,0,0,1-.36.11Zm0-.27a.3.3,0,0,0,.25-.12A.46.46,0,0,0,7.56,2a.53.53,0,0,0-.09-.3.3.3,0,0,0-.25-.12A.32.32,0,0,0,7,1.71a.53.53,0,0,0-.09.3.46.46,0,0,0,.09.3.3.3,0,0,0,.22.12Zm1.5.27a.58.58,0,0,1-.36-.1.69.69,0,0,1-.24-.24A.81.81,0,0,1,8,2a.81.81,0,0,1,.08-.34.69.69,0,0,1,1.2,0A.7.7,0,0,1,9.4,2a.85.85,0,0,1-.08.35.69.69,0,0,1-.24.24.66.66,0,0,1-.36.11Zm0-.27A.31.31,0,0,0,9,2.31.42.42,0,0,0,9.06,2,.49.49,0,0,0,9,1.71a.32.32,0,0,0-.45-.05.12.12,0,0,0-.05.05.53.53,0,0,0-.09.3.46.46,0,0,0,.09.3.27.27,0,0,0,.22.12ZM10.5.69h.33v2h-.31v-.1l-.16.08a.67.67,0,0,1-.2,0,.5.5,0,0,1-.33-.1.61.61,0,0,1-.21-.24A.75.75,0,0,1,9.55,2a.8.8,0,0,1,.07-.34.64.64,0,0,1,.21-.25.63.63,0,0,1,.33-.09.48.48,0,0,1,.34.11Zm-.29,1.74a.28.28,0,0,0,.23-.11A.53.53,0,0,0,10.52,2a.46.46,0,0,0-.08-.3.28.28,0,0,0-.23-.11A.32.32,0,0,0,10,1.7a.53.53,0,0,0-.09.3.46.46,0,0,0,.09.3A.28.28,0,0,0,10.21,2.43Zm2.2-1.1a.63.63,0,0,1,.33.09.55.55,0,0,1,.2.25A.92.92,0,0,1,13,2a.84.84,0,0,1-.07.35.52.52,0,0,1-.2.24.5.5,0,0,1-.33.1.64.64,0,0,1-.4-.11v.09h-.3v-2H12v.76A.59.59,0,0,1,12.41,1.33Zm0,1.1a.25.25,0,0,0,.22-.12.46.46,0,0,0,.08-.3.46.46,0,0,0-.08-.3.27.27,0,0,0-.22-.11.3.3,0,0,0-.25.11A.43.43,0,0,0,12,2a.48.48,0,0,0,.08.31.3.3,0,0,0,.29.12Zm1.46.27a.65.65,0,0,1-.36-.1.59.59,0,0,1-.23-.24A.77.77,0,0,1,13.16,2a.66.66,0,0,1,.08-.34.56.56,0,0,1,.23-.25.65.65,0,0,1,.36-.1.61.61,0,0,1,.37.1.56.56,0,0,1,.23.25.66.66,0,0,1,.08.34.72.72,0,0,1-.08.35.59.59,0,0,1-.23.24.7.7,0,0,1-.37.11Zm0-.27a.32.32,0,0,0,.26-.12.46.46,0,0,0,.09-.3.53.53,0,0,0-.09-.3.32.32,0,0,0-.26-.12.3.3,0,0,0-.25.12.53.53,0,0,0-.09.3.46.46,0,0,0,.09.3.3.3,0,0,0,.21.12Zm1,.88.29-.73-.55-1.23H15l.33.85.35-.85H16l-.83,2Z" style="fill: #321e0f"/>
  <path d="M1.36.81a.11.11,0,0,0,0,.08.09.09,0,0,0,.07,0,.11.11,0,0,0,.08,0,.11.11,0,0,0,0-.14l0,0a.11.11,0,0,0-.08,0,.09.09,0,0,0-.07,0A.11.11,0,0,0,1.36.81ZM1.6,1a.1.1,0,0,0,.13.05A.09.09,0,0,0,1.78.92.1.1,0,0,0,1.65.87a.12.12,0,0,0,0,.05A.11.11,0,0,0,1.6,1ZM1.14,2.14a.48.48,0,0,0,.29,0c0-.18,0-.33-.1-.34s-.16.15-.19.36Zm2,.78a1,1,0,0,1,.17.42.67.67,0,0,1,.43-.16h.17a.85.85,0,0,0-.58.76H1.06a.86.86,0,0,1,0-.32A1.12,1.12,0,0,1,1.18,3a2.57,2.57,0,0,1-.1-.73V2.1a1.12,1.12,0,0,1-.87-.6H.12L.05,1.4a.11.11,0,0,1,0-.08V1.13L.1,1.06A.15.15,0,0,1,.19,1H.28A1.49,1.49,0,0,1,1.54.46,1.93,1.93,0,0,1,2,.46C2,.24,2.1,0,2.18,0s.16.26.16.59h0c.13-.27.28-.45.36-.42s0,.3-.08.61a.9.9,0,0,1,.21.27,2.34,2.34,0,0,1,.3,1.21,3.15,3.15,0,0,1-.06.61Z" style="fill: url(#a)"/>
</svg>
