<svg xmlns="http://www.w3.org/2000/svg" width="16" height="16" viewBox="0 0 16 16"  class="icon">
  <path d="M11.83,9.09A5,5,0,0,0,8,7.08a5,5,0,0,0-3.83,2A6.46,6.46,0,0,0,2.62,13a1.77,1.77,0,0,0,.58,1.43,2.16,2.16,0,0,0,1.42.42,10.64,10.64,0,0,0,1.88-.24,9.58,9.58,0,0,1,1.5-.2,8.36,8.36,0,0,1,1.37.19c1.23.23,2.63.49,3.43-.18A1.77,1.77,0,0,0,13.38,13,6.46,6.46,0,0,0,11.83,9.09Zm.37,4.64c-.47.39-1.68.16-2.65,0A8.88,8.88,0,0,0,8,13.5a10.11,10.11,0,0,0-1.67.22c-.93.17-2.1.38-2.53,0-.06-.05-.24-.2-.24-.71A5.58,5.58,0,0,1,4.89,9.69,4.13,4.13,0,0,1,8,8a4.13,4.13,0,0,1,3.11,1.67A5.58,5.58,0,0,1,12.44,13C12.44,13.53,12.26,13.68,12.2,13.73Z"/>
  <path d="M11.94,2a1.91,1.91,0,0,0-1.55-.92A1.89,1.89,0,0,0,8.85,2a3.46,3.46,0,0,0-.56,2,3.46,3.46,0,0,0,.56,2,1.88,1.88,0,0,0,1.54.91A1.9,1.9,0,0,0,11.94,6a3.53,3.53,0,0,0,.56-2A3.53,3.53,0,0,0,11.94,2Zm-.77,3.41a1,1,0,0,1-.78.51,1,1,0,0,1-.77-.51A2.65,2.65,0,0,1,9.22,4a2.68,2.68,0,0,1,.4-1.45,1,1,0,0,1,.77-.5,1,1,0,0,1,.78.5A2.68,2.68,0,0,1,11.57,4,2.65,2.65,0,0,1,11.17,5.45Z"/>
  <path d="M7.15,2a1.89,1.89,0,0,0-1.54-.92A1.91,1.91,0,0,0,4.06,2,3.53,3.53,0,0,0,3.5,4a3.53,3.53,0,0,0,.56,2,1.9,1.9,0,0,0,1.55.91A1.88,1.88,0,0,0,7.15,6a3.46,3.46,0,0,0,.56-2A3.46,3.46,0,0,0,7.15,2ZM6.38,5.45A1,1,0,0,1,5.61,6a1,1,0,0,1-.78-.51A2.65,2.65,0,0,1,4.43,4a2.68,2.68,0,0,1,.4-1.45,1,1,0,0,1,.78-.5,1,1,0,0,1,.77.5A2.68,2.68,0,0,1,6.78,4,2.65,2.65,0,0,1,6.38,5.45Z"/>
  <path d="M15.91,6.57a1.62,1.62,0,0,0-1-1.11,1.52,1.52,0,0,0-1.18.07,2.38,2.38,0,0,0-1.19,1.41,2.64,2.64,0,0,0-.07,1.59,1.6,1.6,0,0,0,1,1.1,1.43,1.43,0,0,0,.5.09,1.63,1.63,0,0,0,.67-.15,2.42,2.42,0,0,0,1.2-1.42h0A2.6,2.6,0,0,0,15.91,6.57ZM15,7.84a1.57,1.57,0,0,1-.71.88.57.57,0,0,1-.45,0c-.41-.15-.57-.85-.34-1.5a1.51,1.51,0,0,1,.71-.87.61.61,0,0,1,.28-.07.51.51,0,0,1,.17,0C15,6.49,15.18,7.19,15,7.84Z"/>
  <path d="M3.42,6.94A2.38,2.38,0,0,0,2.23,5.53a1.52,1.52,0,0,0-1.18-.07,1.62,1.62,0,0,0-1,1.11A2.6,2.6,0,0,0,.16,8.15h0a2.42,2.42,0,0,0,1.2,1.42A1.63,1.63,0,0,0,2,9.72a1.43,1.43,0,0,0,.5-.09,1.6,1.6,0,0,0,1-1.1A2.64,2.64,0,0,0,3.42,6.94ZM2.2,8.75a.57.57,0,0,1-.45,0A1.57,1.57,0,0,1,1,7.84H1c-.22-.65-.06-1.35.34-1.5a.57.57,0,0,1,.45,0,1.51,1.51,0,0,1,.71.87C2.77,7.9,2.61,8.6,2.2,8.75Z"/>
</svg>
