<svg xmlns="http://www.w3.org/2000/svg" width="16" height="16" viewBox="0 0 16 16" class="icon">
  <g>
    <path d="M13.52.2h-11A2.5,2.5,0,0,0,.72.93a.69.69,0,0,0-.11.13A2.44,2.44,0,0,0,0,2.68v8.44A3.11,3.11,0,0,0,2.31,14l7.24,1.7a2.48,2.48,0,0,0,.54.06,2,2,0,0,0,1.26-.42,2.1,2.1,0,0,0,.76-1.67V12.3h1.41A2.48,2.48,0,0,0,16,9.82V2.68A2.48,2.48,0,0,0,13.52.2ZM11,13.71a.93.93,0,0,1-1.23,1L2.56,13a2,2,0,0,1-1.49-1.87V2.68A1.47,1.47,0,0,1,1.27,2L9.55,4A2.09,2.09,0,0,1,11,5.93Zm3.9-3.89a1.41,1.41,0,0,1-1.41,1.41H12.11V6.46h.76a.54.54,0,0,0,0-1.07h-.82A3.22,3.22,0,0,0,10.4,3.22h2.47a.54.54,0,0,0,0-1.07H6.44l-3.5-.88H13.52a1.42,1.42,0,0,1,1.41,1.41Z"/>
    <path d="M8.65,7.34a1.84,1.84,0,1,0,1.83,1.83A1.84,1.84,0,0,0,8.65,7.34Zm0,2.59a.76.76,0,1,1,.76-.76A.76.76,0,0,1,8.65,9.93Z"/>
  </g>
</svg>
